<svg width="1200" height="860" viewBox="0 0 1200 860" fill="none" xmlns="http://www.w3.org/2000/svg">
  <defs>
    <linearGradient id="bgHeroWow" x1="0" y1="0" x2="1200" y2="860" gradientUnits="userSpaceOnUse">
      <stop stop-color="#FDF6EF"/>
      <stop offset="1" stop-color="#F2E4D5"/>
    </linearGradient>
    <linearGradient id="buildingMain" x1="610" y1="220" x2="610" y2="748" gradientUnits="userSpaceOnUse">
      <stop stop-color="#FFF8F0"/>
      <stop offset="1" stop-color="#EED9C3"/>
    </linearGradient>
    <linearGradient id="windowGlow" x1="0" y1="0" x2="1" y2="1">
      <stop stop-color="#FFDFA8"/>
      <stop offset="1" stop-color="#F8B768"/>
    </linearGradient>
  </defs>

  <rect width="1200" height="860" fill="url(#bgHeroWow)"/>
  <circle cx="150" cy="140" r="148" fill="#FAD9BC" fill-opacity="0.56"/>
  <circle cx="1060" cy="112" r="174" fill="#F3D3B8" fill-opacity="0.52"/>
  <circle cx="1010" cy="704" r="214" fill="#E9D1BC" fill-opacity="0.64"/>

  <rect y="640" width="1200" height="220" fill="#EBD7C2"/>
  <ellipse cx="600" cy="646" rx="350" ry="52" fill="#D8BDA1"/>

  <rect x="300" y="218" width="620" height="462" rx="26" fill="url(#buildingMain)" stroke="#C8A788" stroke-width="8"/>
  <rect x="276" y="180" width="668" height="58" rx="20" fill="#CA4A13"/>
  <text x="600" y="218" text-anchor="middle" fill="#FFF6EA" font-family="Arial, sans-serif" font-size="34" font-weight="700">
    WARUNK WOW KWB
  </text>

  <rect x="342" y="270" width="538" height="72" rx="14" fill="#F7E5D2"/>
  <rect x="342" y="356" width="538" height="72" rx="14" fill="#F7E5D2"/>
  <rect x="342" y="442" width="538" height="72" rx="14" fill="#F7E5D2"/>
  <rect x="342" y="528" width="538" height="72" rx="14" fill="#F7E5D2"/>

  <rect x="366" y="286" width="82" height="40" rx="8" fill="url(#windowGlow)"/>
  <rect x="472" y="286" width="82" height="40" rx="8" fill="url(#windowGlow)"/>
  <rect x="578" y="286" width="82" height="40" rx="8" fill="url(#windowGlow)"/>
  <rect x="684" y="286" width="82" height="40" rx="8" fill="url(#windowGlow)"/>
  <rect x="790" y="286" width="66" height="40" rx="8" fill="url(#windowGlow)"/>

  <rect x="366" y="372" width="82" height="40" rx="8" fill="url(#windowGlow)"/>
  <rect x="472" y="372" width="82" height="40" rx="8" fill="url(#windowGlow)"/>
  <rect x="578" y="372" width="82" height="40" rx="8" fill="url(#windowGlow)"/>
  <rect x="684" y="372" width="82" height="40" rx="8" fill="url(#windowGlow)"/>
  <rect x="790" y="372" width="66" height="40" rx="8" fill="url(#windowGlow)"/>

  <rect x="366" y="458" width="82" height="40" rx="8" fill="url(#windowGlow)"/>
  <rect x="472" y="458" width="82" height="40" rx="8" fill="url(#windowGlow)"/>
  <rect x="578" y="458" width="82" height="40" rx="8" fill="url(#windowGlow)"/>
  <rect x="684" y="458" width="82" height="40" rx="8" fill="url(#windowGlow)"/>
  <rect x="790" y="458" width="66" height="40" rx="8" fill="url(#windowGlow)"/>

  <rect x="366" y="544" width="82" height="40" rx="8" fill="url(#windowGlow)"/>
  <rect x="472" y="544" width="82" height="40" rx="8" fill="url(#windowGlow)"/>
  <rect x="578" y="544" width="82" height="40" rx="8" fill="url(#windowGlow)"/>
  <rect x="684" y="544" width="82" height="40" rx="8" fill="url(#windowGlow)"/>
  <rect x="790" y="544" width="66" height="40" rx="8" fill="url(#windowGlow)"/>

  <rect x="540" y="594" width="140" height="86" rx="14" fill="#A96033"/>
  <rect x="560" y="612" width="42" height="52" rx="8" fill="#DAB089"/>
  <rect x="618" y="612" width="42" height="52" rx="8" fill="#DAB089"/>

  <text x="600" y="760" text-anchor="middle" fill="#8A5D3C" font-family="Arial, sans-serif" font-size="30" font-weight="700">
    Rooftop &amp; Live Music
  </text>
</svg>
