<svg width="640" height="420" viewBox="0 0 640 420" fill="none" xmlns="http://www.w3.org/2000/svg">
  <defs>
    <linearGradient id="bgNanban" x1="0" y1="0" x2="640" y2="420" gradientUnits="userSpaceOnUse">
      <stop stop-color="#FFF8F0"/>
      <stop offset="1" stop-color="#F1DFC9"/>
    </linearGradient>
    <linearGradient id="riceTone" x1="320" y1="182" x2="320" y2="278" gradientUnits="userSpaceOnUse">
      <stop stop-color="#F6F0E5"/>
      <stop offset="1" stop-color="#E8DAC7"/>
    </linearGradient>
    <linearGradient id="chickenTone" x1="320" y1="166" x2="320" y2="262" gradientUnits="userSpaceOnUse">
      <stop stop-color="#CB7A43"/>
      <stop offset="1" stop-color="#9A522A"/>
    </linearGradient>
  </defs>

  <rect width="640" height="420" fill="url(#bgNanban)"/>
  <ellipse cx="320" cy="304" rx="210" ry="42" fill="#D9C1A3"/>
  <ellipse cx="320" cy="282" rx="192" ry="35" fill="#FAF4EB"/>

  <ellipse cx="320" cy="228" rx="134" ry="84" fill="url(#riceTone)"/>

  <ellipse cx="260" cy="220" rx="46" ry="34" fill="url(#chickenTone)"/>
  <ellipse cx="320" cy="204" rx="46" ry="34" fill="url(#chickenTone)"/>
  <ellipse cx="376" cy="228" rx="46" ry="34" fill="url(#chickenTone)"/>
  <ellipse cx="320" cy="246" rx="46" ry="34" fill="url(#chickenTone)"/>

  <path d="M234 220C256 196 294 188 326 196C358 204 390 224 406 244" stroke="#FBE8CC" stroke-width="10" stroke-linecap="round"/>
  <circle cx="294" cy="186" r="8" fill="#5D8548"/>
  <circle cx="350" cy="252" r="8" fill="#5D8548"/>
  <circle cx="274" cy="248" r="7" fill="#5D8548"/>

  <text x="38" y="364" fill="#7D4A2A" font-family="Arial, sans-serif" font-size="30" font-weight="700">Chicken Nanban RiceBowl</text>
</svg>
